{
  "source": "C:\\Users\\Peter\\Desktop\\stuff\\MIUN\\quantitative_research\\video_compression\\videos\\BVI-HD\\BVI-HD_CDVL_videos\\ORIG\\Surfers_1920x1080_30fps.mp4",
  "output": "C:\\Users\\Peter\\Desktop\\stuff\\MIUN\\quantitative_research\\video_compression\\compressed_videos\\BVI-HD\\h264\\1.5\\Surfers_1920x1080_30fps_h264.mp4",
  "codec": "h264",
  "ok": "Input #0, mov,mp4,m4a,3gp,3g2,mj2, from 'C:\\Users\\Peter\\Desktop\\stuff\\MIUN\\quantitative_research\\video_compression\\videos\\BVI-HD\\BVI-HD_CDVL_videos\\ORIG\\Surfers_1920x1080_30fps.mp4':\n  Metadata:\n    major_brand     : isom\n    minor_version   : 512\n    compatible_brands: isomiso2avc1mp41\n    encoder         : Lavf54.28.101\n  Duration: 00:00:05.00, start: 0.000000, bitrate: 232762 kb/s\n  Stream #0:0[0x1](und): Video: h264 (High 4:4:4 Predictive) (avc1 / 0x31637661), yuv420p(progressive), 1920x1080, 232759 kb/s, 30 fps, 30 tbr, 30 tbn (default)\n    Metadata:\n      handler_name    : VideoHandler\n      vendor_id       : [0][0][0][0]\n[out#0/mp4 @ 0000020a73f99cc0] Codec AVOption b:a (set bitrate (in bits/s)) has not been used for any stream. The most likely reason is either wrong type (e.g. a video option with no video streams) or that it is a private option of some decoder which was not actually used for any stream.\nStream mapping:\n  Stream #0:0 -> #0:0 (h264 (native) -> h264 (libx264))\nPress [q] to stop, [?] for help\n[libx264 @ 0000020a745e0ac0] using cpu capabilities: MMX2 SSE2Fast SSSE3 SSE4.2 AVX FMA3 BMI2 AVX2\n[libx264 @ 0000020a745e0ac0] profile High, level 5.0, 4:2:0, 8-bit\n[libx264 @ 0000020a745e0ac0] 264 - core 165 r3222 b35605a - H.264/MPEG-4 AVC codec - Copyleft 2003-2025 - http://www.videolan.org/x264.html - options: cabac=1 ref=5 deblock=1:0:0 analyse=0x3:0x113 me=hex subme=8 psy=1 psy_rd=1.00:0.00 mixed_ref=1 me_range=16 chroma_me=1 trellis=2 8x8dct=1 cqm=0 deadzone=21,11 fast_pskip=1 chroma_qp_offset=-2 threads=18 lookahead_threads=3 sliced_threads=0 nr=0 decimate=1 interlaced=0 bluray_compat=0 constrained_intra=0 bframes=3 b_pyramid=2 b_adapt=1 b_bias=0 direct=3 weightb=1 open_gop=0 weightp=2 keyint=250 keyint_min=25 scenecut=40 intra_refresh=0 rc_lookahead=50 rc=cbr mbtree=1 bitrate=1500 ratetol=1.0 qcomp=0.60 qpmin=0 qpmax=69 qpstep=4 vbv_maxrate=1500 vbv_bufsize=1500 nal_hrd=none filler=0 ip_ratio=1.40 aq=1:1.00\nOutput #0, mp4, to 'C:\\Users\\Peter\\Desktop\\stuff\\MIUN\\quantitative_research\\video_compression\\compressed_videos\\BVI-HD\\h264\\1.5\\Surfers_1920x1080_30fps_h264.mp4':\n  Metadata:\n    major_brand     : isom\n    minor_version   : 512\n    compatible_brands: isomiso2avc1mp41\n    encoder         : Lavf62.3.100\n  Stream #0:0(und): Video: h264 (avc1 / 0x31637661), yuv420p(tv, progressive), 1920x1080, q=2-31, 1500 kb/s, 30 fps, 15360 tbn (default)\n    Metadata:\n      encoder         : Lavc62.11.100 libx264\n      handler_name    : VideoHandler\n      vendor_id       : [0][0][0][0]\n    Side data:\n      cpb: bitrate max/min/avg: 1500000/0/1500000 buffer size: 1500000 vbv_delay: N/A\nframe=    0 fps=0.0 q=0.0 size=       0KiB time=N/A bitrate=N/A speed=N/A elapsed=0:00:00.50    \nframe=    0 fps=0.0 q=0.0 size=       0KiB time=N/A bitrate=N/A speed=N/A elapsed=0:00:01.08    \nframe=   13 fps=8.1 q=41.0 size=       0KiB time=00:00:00.36 bitrate=   1.0kbits/s speed=0.227x elapsed=0:00:01.61    \nframe=   36 fps= 17 q=41.0 size=       0KiB time=00:00:01.00 bitrate=   0.4kbits/s speed=0.465x elapsed=0:00:02.15    \nframe=   57 fps= 21 q=41.0 size=     256KiB time=00:00:01.83 bitrate=1144.1kbits/s speed=0.675x elapsed=0:00:02.71    \nframe=   73 fps= 23 q=42.0 size=     256KiB time=00:00:02.23 bitrate= 939.2kbits/s speed=0.69x elapsed=0:00:03.23    \nframe=  114 fps= 30 q=41.0 size=     512KiB time=00:00:03.63 bitrate=1154.5kbits/s speed=0.961x elapsed=0:00:03.78    \n[mp4 @ 0000020a73fa1300] Starting second pass: moving the moov atom to the beginning of the file\n[out#0/mp4 @ 0000020a73f99cc0] video:868KiB audio:0KiB subtitle:0KiB other streams:0KiB global headers:0KiB muxing overhead: 0.296107%\nframe=  150 fps= 36 q=-1.0 Lsize=     870KiB time=00:00:04.93 bitrate=1445.1kbits/s speed=1.17x elapsed=0:00:04.22    \n[libx264 @ 0000020a745e0ac0] frame I:2     Avg QP:37.50  size: 15322\n[libx264 @ 0000020a745e0ac0] frame P:41    Avg QP:39.37  size: 10587\n[libx264 @ 0000020a745e0ac0] frame B:107   Avg QP:41.10  size:  3954\n[libx264 @ 0000020a745e0ac0] consecutive B-frames:  2.7%  4.0%  8.0% 85.3%\n[libx264 @ 0000020a745e0ac0] mb I  I16..4: 49.4% 49.7%  0.9%\n[libx264 @ 0000020a745e0ac0] mb P  I16..4:  8.3%  6.0%  0.1%  P16..4: 29.0%  2.7%  1.5%  0.0%  0.0%    skip:52.4%\n[libx264 @ 0000020a745e0ac0] mb B  I16..4:  0.2%  0.3%  0.0%  B16..8: 30.7%  1.0%  0.1%  direct: 0.4%  skip:67.3%  L0:42.6% L1:55.9% BI: 1.5%\n[libx264 @ 0000020a745e0ac0] 8x8 transform intra:44.3% inter:95.1%\n[libx264 @ 0000020a745e0ac0] direct mvs  spatial:91.6% temporal:8.4%\n[libx264 @ 0000020a745e0ac0] coded y,uvDC,uvAC intra: 17.6% 11.6% 0.1% inter: 4.3% 1.0% 0.0%\n[libx264 @ 0000020a745e0ac0] i16 v,h,dc,p:  7% 70%  4% 18%\n[libx264 @ 0000020a745e0ac0] i8 v,h,dc,ddl,ddr,vr,hd,vl,hu:  2% 25% 29%  2%  5%  2% 16%  2% 16%\n[libx264 @ 0000020a745e0ac0] i4 v,h,dc,ddl,ddr,vr,hd,vl,hu:  4% 18% 10%  6% 11%  8% 18%  5% 21%\n[libx264 @ 0000020a745e0ac0] i8c dc,h,v,p: 77% 22%  1%  0%\n[libx264 @ 0000020a745e0ac0] Weighted P-Frames: Y:0.0% UV:0.0%\n[libx264 @ 0000020a745e0ac0] ref P L0: 49.7%  8.2% 21.8%  9.9% 10.2%  0.2%\n[libx264 @ 0000020a745e0ac0] ref B L0: 78.2% 14.3%  5.9%  1.6%\n[libx264 @ 0000020a745e0ac0] ref B L1: 93.2%  6.8%\n[libx264 @ 0000020a745e0ac0] kb/s:1420.43\n",
  "seconds": 4.467420816421509,
  "probe_out": {}
}